<?xml version="1.0" encoding="UTF-8"?> <svg xmlns="http://www.w3.org/2000/svg" width="30" height="30" viewBox="0 0 30 30" fill="none"> <path d="M28.5 6H22V4C21.9983 2.61987 20.8801 1.50171 19.5 1.5H10.5C9.11987 1.50171 8.00171 2.61987 8 4V6H1.5C0.671631 6 0 6.67163 0 7.5V18.6299C0.00317383 19.2642 0.402832 19.8284 1 20.0415V27C1 27.8284 1.67163 28.5 2.5 28.5H27.5C28.3284 28.5 29 27.8284 29 27V20.042C29.5972 19.8286 29.9971 19.2642 30 18.6299V7.5C30 6.67163 29.3284 6 28.5 6ZM9 4C9 3.17163 9.67163 2.5 10.5 2.5H19.5C20.3284 2.5 21 3.17163 21 4V6H20V4C20 3.72388 19.7761 3.5 19.5 3.5H10.5C10.2239 3.5 10 3.72388 10 4V6H9V4ZM19 6H11V4.5H19V6ZM28 27C28 27.2761 27.7761 27.5 27.5 27.5H2.5C2.22388 27.5 2 27.2761 2 27V20.2134L13 21.7305V23C13 23.8284 13.6716 24.5 14.5 24.5H15.5C16.3284 24.5 17 23.8284 17 23V21.7305L28 20.2134V27ZM16 23C16 23.2761 15.7761 23.5 15.5 23.5H14.5C14.2239 23.5 14 23.2761 14 23V20C14 19.7239 14.2239 19.5 14.5 19.5H15.5C15.7761 19.5 16 19.7239 16 20V23ZM29 18.6299C29.0002 18.8792 28.8169 19.0906 28.5701 19.1255L28.4314 19.1445L17 20.7209V20C17 19.1716 16.3284 18.5 15.5 18.5H14.5C13.6716 18.5 13 19.1716 13 20V20.7209L1.43042 19.1255C1.18359 19.0908 0.999756 18.8794 1 18.6299V7.5C1 7.22388 1.22388 7 1.5 7H28.5C28.7761 7 29 7.22388 29 7.5V18.6299Z" fill="#D11E29"></path> </svg> 